%TF.GenerationSoftware,Altium Limited,Altium Designer,22.1.2 (22)*%
G04 Layer_Color=0*
%FSLAX45Y45*%
%MOMM*%
%TF.SameCoordinates,F88EAB15-EB31-4D90-BBFA-743B997E66F0*%
%TF.FilePolarity,Positive*%
%TF.FileFunction,Plated,1,2,PTH,Drill*%
%TF.Part,Single*%
G01*
G75*
%TA.AperFunction,ComponentDrill*%
%ADD131O,0.65000X1.45000*%
%ADD132O,0.65000X1.75000*%
%TA.AperFunction,ViaDrill,NotFilled*%
%ADD133C,0.30000*%
D131*
X2282000Y-133750D02*
D03*
X1418000D02*
D03*
D132*
X2282000Y-548750D02*
D03*
X1418000D02*
D03*
D133*
X7870000Y-2970000D02*
D03*
X7760000Y-2860000D02*
D03*
X7117781Y-1293411D02*
D03*
X6880000Y-1290000D02*
D03*
X7142269Y-1088345D02*
D03*
X10490000Y-1240000D02*
D03*
X10500000Y-1430000D02*
D03*
X10770000Y-1410000D02*
D03*
X11250000Y-1990000D02*
D03*
X11550000Y-2180000D02*
D03*
X11560000Y-2010000D02*
D03*
X10030000Y-1950000D02*
D03*
X10050000Y-2120000D02*
D03*
X10790000Y-3690000D02*
D03*
X10760000Y-3850000D02*
D03*
X10500000D02*
D03*
X9920000Y-4870000D02*
D03*
X9600000Y-4830000D02*
D03*
X9780000Y-4780000D02*
D03*
X8370000Y-4540000D02*
D03*
X8130000Y-4600000D02*
D03*
X7925291Y-4543328D02*
D03*
X8320000Y-4380000D02*
D03*
X7000000Y-4490000D02*
D03*
X7060000Y-4290000D02*
D03*
X7410000Y-4240000D02*
D03*
X7200000Y-4550000D02*
D03*
X1260000Y-2640000D02*
D03*
X1100000Y-2710000D02*
D03*
X1300000Y-2810000D02*
D03*
X2690000Y-2990000D02*
D03*
X2490000Y-3010000D02*
D03*
X2580000Y-2660000D02*
D03*
X2800000D02*
D03*
X2810000Y-4320000D02*
D03*
X2340000Y-4410000D02*
D03*
X2750000Y-4470000D02*
D03*
X4450000Y-1040000D02*
D03*
X5940000Y-2800000D02*
D03*
X5740000Y-3440000D02*
D03*
X6020000Y-3160000D02*
D03*
X6320000Y-2860000D02*
D03*
X6650000Y-3090000D02*
D03*
X6340000Y-3390000D02*
D03*
X6080000Y-3640000D02*
D03*
X4640000Y-3770000D02*
D03*
X5120000Y-3840000D02*
D03*
X5170000Y-3360000D02*
D03*
X4930000Y-3320000D02*
D03*
X4720000Y-3500000D02*
D03*
X6370000Y-2480000D02*
D03*
X7060000Y-2170000D02*
D03*
X6700000Y-2080000D02*
D03*
X6900000Y-2420000D02*
D03*
X6620000Y-2630000D02*
D03*
X6650000Y-2490000D02*
D03*
X6420000Y-2300000D02*
D03*
X2166404Y-1919239D02*
D03*
X980000Y-4730000D02*
D03*
X1430000Y-4720000D02*
D03*
X1900000Y-4770000D02*
D03*
X2060000Y-3950000D02*
D03*
X2340000Y-3600000D02*
D03*
X2610000Y-3640000D02*
D03*
X2830000Y-3330000D02*
D03*
X2530000Y-3169300D02*
D03*
X2700000Y-3100000D02*
D03*
X2920000Y-4000000D02*
D03*
X2420000Y-3310000D02*
D03*
X2530000Y-3350000D02*
D03*
X2840000Y-1710000D02*
D03*
X2720000Y-1780000D02*
D03*
X2570000D02*
D03*
X2440000D02*
D03*
X3040700Y-1700000D02*
D03*
X2620000Y-3940000D02*
D03*
X4760000Y-4200000D02*
D03*
X7220000Y-2920000D02*
D03*
X11510000Y-700000D02*
D03*
X11760000Y-1200000D02*
D03*
X11510000Y-1700000D02*
D03*
Y-2700000D02*
D03*
X11760000Y-3200000D02*
D03*
X11510000Y-3700000D02*
D03*
X11760000Y-4200000D02*
D03*
X11010000Y-700000D02*
D03*
X11260000Y-1200000D02*
D03*
X11010000Y-1700000D02*
D03*
X11260000Y-2200000D02*
D03*
X11010000Y-2700000D02*
D03*
X11260000Y-3200000D02*
D03*
X11010000Y-3700000D02*
D03*
X11260000Y-4200000D02*
D03*
X11010000Y-4700000D02*
D03*
X10760000Y-1200000D02*
D03*
X10510000Y-1700000D02*
D03*
X10760000Y-2200000D02*
D03*
X10510000Y-2700000D02*
D03*
X10760000Y-3200000D02*
D03*
X10510000Y-3700000D02*
D03*
X10760000Y-4200000D02*
D03*
X10510000Y-4700000D02*
D03*
X10010000Y-700000D02*
D03*
X10260000Y-1200000D02*
D03*
X10010000Y-1700000D02*
D03*
Y-2700000D02*
D03*
X10260000Y-3200000D02*
D03*
X10010000Y-3700000D02*
D03*
X10260000Y-4200000D02*
D03*
X9510000Y-700000D02*
D03*
Y-1700000D02*
D03*
Y-2700000D02*
D03*
Y-3700000D02*
D03*
Y-4700000D02*
D03*
X9010000Y-700000D02*
D03*
Y-1700000D02*
D03*
X9260000Y-2200000D02*
D03*
X9010000Y-2700000D02*
D03*
Y-3700000D02*
D03*
Y-4700000D02*
D03*
X8760000Y-3200000D02*
D03*
Y-4200000D02*
D03*
X8510000Y-4700000D02*
D03*
X8260000Y-2200000D02*
D03*
X8010000Y-2700000D02*
D03*
X8260000Y-3200000D02*
D03*
Y-4200000D02*
D03*
X8010000Y-4700000D02*
D03*
X7510000Y-700000D02*
D03*
X7760000Y-2200000D02*
D03*
X7510000Y-3700000D02*
D03*
X7010000Y-1700000D02*
D03*
X7260000Y-4200000D02*
D03*
X7010000Y-4700000D02*
D03*
X6510000Y-3700000D02*
D03*
X6760000Y-4200000D02*
D03*
X6510000Y-4700000D02*
D03*
X6260000Y-4200000D02*
D03*
X6010000Y-4700000D02*
D03*
X5510000D02*
D03*
X5010000Y-700000D02*
D03*
X5260000Y-3200000D02*
D03*
X4510000Y-700000D02*
D03*
Y-2700000D02*
D03*
X4760000Y-3200000D02*
D03*
X4010000Y-700000D02*
D03*
X3510000D02*
D03*
X3760000Y-1200000D02*
D03*
X3510000Y-2700000D02*
D03*
X3260000Y-2200000D02*
D03*
X2760000D02*
D03*
X2010000Y-2700000D02*
D03*
X2260000Y-4200000D02*
D03*
X1760000Y-2200000D02*
D03*
X1510000Y-2700000D02*
D03*
X1760000Y-4200000D02*
D03*
X1260000D02*
D03*
X510000Y-700000D02*
D03*
X760000Y-1200000D02*
D03*
X510000Y-2700000D02*
D03*
X2920000Y-1880000D02*
D03*
X2320000Y-1780000D02*
D03*
X2230000Y-1720000D02*
D03*
X1700000Y-2030000D02*
D03*
X1790000Y-1870000D02*
D03*
X2220000Y-1140000D02*
D03*
X2020000D02*
D03*
X2070000Y-2200000D02*
D03*
X1430000Y-900000D02*
D03*
X1700000Y-100000D02*
D03*
X2110000Y-990000D02*
D03*
X1750000Y-1060000D02*
D03*
X1620000Y-2670000D02*
D03*
X6180000Y-2520000D02*
D03*
X5650000Y-90000D02*
D03*
X5270000Y-540000D02*
D03*
X7680000Y-1030000D02*
D03*
X7000000Y-1040000D02*
D03*
X6840000Y-810000D02*
D03*
X1600000Y-1460000D02*
D03*
X4680000Y-4380000D02*
D03*
X4830000Y-4240000D02*
D03*
X6750000Y-2210000D02*
D03*
X6900000Y-2000000D02*
D03*
X270000Y-1220000D02*
D03*
X2770000Y-1510000D02*
D03*
X6170000Y-1980000D02*
D03*
X5570000Y-1720862D02*
D03*
X150000Y-1000000D02*
D03*
X1550000Y-5010000D02*
D03*
X1150000D02*
D03*
X2050000D02*
D03*
X1420343Y-3530000D02*
D03*
X1720000Y-3020000D02*
D03*
X2880000Y-3080000D02*
D03*
X3340000Y-4100000D02*
D03*
X3300000Y-4850000D02*
D03*
X1520000Y-4010000D02*
D03*
X5250000Y-4600000D02*
D03*
X150000Y-5000000D02*
D03*
Y-500000D02*
D03*
X7550000Y-5000000D02*
D03*
X8050000D02*
D03*
X9050000D02*
D03*
X9550000D02*
D03*
X10050000D02*
D03*
X10550000D02*
D03*
X11050000D02*
D03*
X11550000D02*
D03*
X11800000D02*
D03*
Y-4500000D02*
D03*
Y-4000000D02*
D03*
Y-3500000D02*
D03*
Y-3000000D02*
D03*
Y-1500000D02*
D03*
Y-1000000D02*
D03*
Y-500000D02*
D03*
X11550000Y-100000D02*
D03*
X11050000D02*
D03*
X8550000D02*
D03*
X7050000D02*
D03*
X6050000D02*
D03*
X4550000D02*
D03*
X4050000D02*
D03*
X3550000D02*
D03*
X550000D02*
D03*
X7410000Y-2040000D02*
D03*
X6060000Y-4090000D02*
D03*
X5450000Y-2970012D02*
D03*
X6990000Y-1210000D02*
D03*
X6694978Y-1380000D02*
D03*
X10640000Y-3740000D02*
D03*
X9890000Y-2120000D02*
D03*
X10637499Y-1380000D02*
D03*
X11387499Y-2118571D02*
D03*
X4950000Y-1650000D02*
D03*
X5750000Y-1270000D02*
D03*
X6140000Y-1040000D02*
D03*
X4570000Y-2030000D02*
D03*
X4690000D02*
D03*
X3900000Y-2550000D02*
D03*
X8080000Y-4390000D02*
D03*
X9775000Y-4925000D02*
D03*
X7275000Y-4387500D02*
D03*
X5662500D02*
D03*
X5250000Y-4250000D02*
D03*
X4500000Y-4225000D02*
D03*
X2567682Y-2912680D02*
D03*
X2702680Y-2752680D02*
D03*
X6770000Y-2550000D02*
D03*
X7730637D02*
D03*
X6520000Y-2500000D02*
D03*
X4910000Y-3490000D02*
D03*
Y-3850000D02*
D03*
X4690000Y-1310000D02*
D03*
X6140000Y-1270000D02*
D03*
X5750000Y-1050000D02*
D03*
X4150000Y-1350000D02*
D03*
%TF.MD5,3d9ed4716fb0fdf98ee88b7645bb28b6*%
M02*
