%TF.GenerationSoftware,Altium Limited,Altium Designer,22.1.2 (22)*%
G04 Layer_Color=128*
%FSLAX45Y45*%
%MOMM*%
%TF.SameCoordinates,F88EAB15-EB31-4D90-BBFA-743B997E66F0*%
%TF.FilePolarity,Positive*%
%TF.FileFunction,Paste,Bot*%
%TF.Part,Single*%
G01*
G75*
%TA.AperFunction,SMDPad,CuDef*%
%ADD73R,0.75001X1.00000*%
D73*
X11762500Y-2849999D02*
D03*
Y-2250001D02*
D03*
X11387499Y-2849999D02*
D03*
Y-2250001D02*
D03*
X10637499Y-1500001D02*
D03*
Y-2099999D02*
D03*
X11012500Y-1500001D02*
D03*
Y-2099999D02*
D03*
X812500Y-2250001D02*
D03*
Y-2849999D02*
D03*
X1187500Y-2250001D02*
D03*
Y-2849999D02*
D03*
X1687500Y-1900001D02*
D03*
Y-2499999D02*
D03*
X2062500Y-1900001D02*
D03*
Y-2499999D02*
D03*
X10637499Y-3000001D02*
D03*
Y-3599999D02*
D03*
X11012500Y-3000001D02*
D03*
Y-3599999D02*
D03*
X9887499Y-2250001D02*
D03*
Y-2849999D02*
D03*
X10262500Y-2250001D02*
D03*
Y-2849999D02*
D03*
X9912500Y-4400001D02*
D03*
Y-4999999D02*
D03*
X10287500Y-4400001D02*
D03*
Y-4999999D02*
D03*
X2612500D02*
D03*
Y-4400001D02*
D03*
X2237500Y-4999999D02*
D03*
Y-4400001D02*
D03*
%TF.MD5,e55e969bac4e52cc1a16362273a867e2*%
M02*
